<?xml version="1.0" encoding="iso-8859-1"?>
<!-- Generator: Adobe Illustrator 16.0.0, SVG Export Plug-In . SVG Version: 6.00 Build 0)  -->
<!DOCTYPE svg PUBLIC "-//W3C//DTD SVG 1.1//EN" "http://www.w3.org/Graphics/SVG/1.1/DTD/svg11.dtd">
<svg version="1.1" id="Capa_1" xmlns="http://www.w3.org/2000/svg" xmlns:xlink="http://www.w3.org/1999/xlink" x="0px" y="0px"
	 width="472.028px" height="472.027px" viewBox="0 0 472.028 472.027" style="enable-background:new 0 0 472.028 472.027;"
	 xml:space="preserve">
<g>
	<g>
		<path d="M102.488,92.417L107,187.446c0.014-0.008,0.022-0.008,0.03-0.016c4.404-1.924,9.54-0.102,11.738,4.168
			c0.226,0.425,2.502,4.388,7.708,9.54c1.092-9.233,3.406-18.859,5.252-25.563c1.333-4.833,3.054-12.764,3.617-17.755l7.333-65.409
			C117.652,80.902,102.488,92.417,102.488,92.417z"/>
		<path d="M193.166,261.002c106.929,8.348,144.847-109.96,144.847-109.96c-19.26,45.312-75.071,94.034-142.57,89.482
			c-67.491-4.547-86.599-41.617-86.599-41.617S129.622,256.049,193.166,261.002z"/>
		<path d="M343.927,137.415c0.248,0.096,0.469,0.227,0.705,0.345c4.717-11.658,9.494-25.349,14.171-41.417
			c0,0-15.926-10.129-31.09-3.925c0,0-7.39,51.59-20.823,88.466c11.141-11.986,19.865-25.265,25.483-38.489
			C334.286,137.91,339.375,135.728,343.927,137.415z"/>
		<path d="M471.496,113.623c-0.597-5.003-5.738-8.905-10.776-8.811c-21.864,0.377-77.11,1.717-98.354,5.889
			c-4.184,14.036-8.668,27.066-13.385,38.722l-2.722,6.724l-3.25-1.549c-4.793,13.409-43.929,113.653-140.149,113.653
			c-3.681,0-7.456-0.145-11.217-0.445c-58.562-4.568-82.892-49.886-88.765-63.059l-4.232,1.679l-4.638-97.604
			c-32.547-6.396-64.494-8.376-84.591-6.757C4.412,102.464,0,107.229,0,112.254c0.008,16.799,3.408,54.074,29.963,87.979
			c0,0,1.515,105.424,22.75,149.397c21.235,43.98,57.641,34.123,79.628,34.123c21.999,0,225.984,0.945,225.984,0.945
			s55.367,2.85,65.226-45.677c9.857-48.546,10.627-54.609,18.201-68.254c7.574-13.653,17.44-52.332,14.398-69.773
			C453.382,184.911,475.715,148.86,471.496,113.623z"/>
		<path d="M131.283,211.036l-0.285,2.402c12.339,8.862,32.474,18.158,63.927,20.277c39.148,2.653,74.396-13.461,100.14-36.614
			l3.45-9.459c8.095-22.225,14.014-50.273,17.34-68.447c-3.734,1.146-7.91,2.573-12.863,4.442
			c-28.061,10.615-76.596,12.136-76.596,12.136s-34.556,2.024-81.21-12.936l-5.025,44.839c-0.613,5.448-2.427,13.77-3.825,18.819
			C134.617,192.728,132.341,202.053,131.283,211.036z"/>
	</g>
</g>
<g>
</g>
<g>
</g>
<g>
</g>
<g>
</g>
<g>
</g>
<g>
</g>
<g>
</g>
<g>
</g>
<g>
</g>
<g>
</g>
<g>
</g>
<g>
</g>
<g>
</g>
<g>
</g>
<g>
</g>
</svg>
