<?xml version="1.0" encoding="iso-8859-1"?>
<!-- Generator: Adobe Illustrator 17.1.0, SVG Export Plug-In . SVG Version: 6.00 Build 0)  -->
<!DOCTYPE svg PUBLIC "-//W3C//DTD SVG 1.1//EN" "http://www.w3.org/Graphics/SVG/1.1/DTD/svg11.dtd">
<svg version="1.1" id="Capa_1" xmlns="http://www.w3.org/2000/svg" xmlns:xlink="http://www.w3.org/1999/xlink" x="0px" y="0px"
	 viewBox="0 0 476.2 476.2" style="enable-background:new 0 0 476.2 476.2;" xml:space="preserve">
<path d="M279.762,161.916v-10.264h1.308c4.143,0,7.5-3.358,7.5-7.5V91.039c0-4.142-3.357-7.5-7.5-7.5h-24.861V66.166
	c3.655-0.502,6.472-3.629,6.472-7.421V40.623h41.86l32.502,17.436c1.129,0.605,2.343,0.893,3.539,0.893
	c2.675,0,5.263-1.435,6.616-3.956c1.958-3.65,0.586-8.196-3.063-10.154l-34.163-18.327c-1.091-0.585-2.309-0.891-3.546-0.891H262.68
	V15h9.582c4.143,0,7.5-3.358,7.5-7.5s-3.357-7.5-7.5-7.5H255.18h-34.163h-17.082c-4.142,0-7.5,3.358-7.5,7.5s3.358,7.5,7.5,7.5
	h9.582v43.745c0,3.792,2.818,6.919,6.472,7.421v17.373h-24.861c-4.142,0-7.5,3.358-7.5,7.5v53.113c0,4.142,3.358,7.5,7.5,7.5h1.308
	v10.264c-41.079,16.815-68.326,57.06-68.326,101.806v191.633c0,11.494,9.351,20.845,20.845,20.845h178.288
	c11.494,0,20.846-9.351,20.846-20.845V263.722C348.088,218.976,320.841,178.73,279.762,161.916z M247.68,15v36.245h-19.163V15
	H247.68z M234.99,66.245h6.219v17.294h-6.219V66.245z M202.628,98.539h24.861h21.219h24.861v38.113h-1.308h-68.326h-1.308V98.539z
	 M333.088,455.355c0,3.223-2.622,5.845-5.846,5.845H148.955c-3.223,0-5.845-2.622-5.845-5.845V263.722
	c0-39.777,24.929-75.433,62.153-89.145h26.159c4.142,0,7.5-3.358,7.5-7.5s-3.358-7.5-7.5-7.5h-19.986v-7.925h53.326v7.925h-2.819
	c-4.143,0-7.5,3.358-7.5,7.5s3.357,7.5,7.5,7.5h8.993c37.224,13.713,62.153,49.368,62.153,89.145V455.355z M322.634,317.617v15.904
	c0,4.142-3.357,7.5-7.5,7.5s-7.5-3.358-7.5-7.5v-15.904c0-4.142,3.357-7.5,7.5-7.5S322.634,313.475,322.634,317.617z
	 M322.634,263.876v21.934c0,4.142-3.357,7.5-7.5,7.5s-7.5-3.358-7.5-7.5v-21.934c0-26.404-16.716-50.054-41.596-58.849
	c-3.905-1.381-5.952-5.666-4.571-9.571s5.662-5.952,9.571-4.572C301.9,201.795,322.634,231.128,322.634,263.876z"/>
<g>
</g>
<g>
</g>
<g>
</g>
<g>
</g>
<g>
</g>
<g>
</g>
<g>
</g>
<g>
</g>
<g>
</g>
<g>
</g>
<g>
</g>
<g>
</g>
<g>
</g>
<g>
</g>
<g>
</g>
</svg>
