<?xml version="1.0" encoding="iso-8859-1"?>
<!-- Generator: Adobe Illustrator 16.0.0, SVG Export Plug-In . SVG Version: 6.00 Build 0)  -->
<!DOCTYPE svg PUBLIC "-//W3C//DTD SVG 1.1//EN" "http://www.w3.org/Graphics/SVG/1.1/DTD/svg11.dtd">
<svg version="1.1" id="Capa_1" xmlns="http://www.w3.org/2000/svg" xmlns:xlink="http://www.w3.org/1999/xlink" x="0px" y="0px"
	 width="378px" height="378px" viewBox="0 0 378 378" style="enable-background:new 0 0 378 378;" xml:space="preserve">
<g>
	<g>
		<path d="M376.554,204.36L343.5,180.411v-34.214c0-1.93-1.57-3.5-3.5-3.5h-84.253V70.048C255.747,33.243,225.805,3.3,189,3.3
			c-36.805,0-66.748,29.943-66.748,66.748v72.649H38c-1.93,0-3.5,1.57-3.5,3.5v34.214L1.447,204.362
			c-1.118,0.81-1.657,2.205-1.372,3.556l34.5,164.002c0.046,0.213,0.111,0.416,0.189,0.609c0.021,0.053,0.046,0.1,0.091,0.184
			c0.065,0.135,0.135,0.271,0.214,0.391c0.031,0.05,0.066,0.095,0.137,0.187c0.082,0.109,0.167,0.215,0.264,0.316
			c0.056,0.059,0.114,0.112,0.177,0.172c0.095,0.084,0.19,0.166,0.299,0.246c0.071,0.051,0.142,0.098,0.21,0.139
			c0.109,0.07,0.224,0.129,0.331,0.18c0.075,0.037,0.151,0.074,0.24,0.111c0.135,0.053,0.274,0.092,0.461,0.141
			c0.048,0.015,0.096,0.027,0.151,0.039c0.216,0.041,0.416,0.062,0.667,0.066h301.997c0.224,0,0.445-0.025,0.661-0.068
			c0.056-0.01,0.108-0.024,0.189-0.049c0.144-0.035,0.282-0.076,0.425-0.133c0.063-0.025,0.129-0.056,0.229-0.104
			c0.114-0.055,0.224-0.112,0.336-0.182c0.073-0.047,0.146-0.094,0.217-0.146c0.104-0.073,0.199-0.155,0.288-0.237
			c0.062-0.054,0.119-0.109,0.187-0.177c0.09-0.094,0.169-0.194,0.302-0.368l0.096-0.132c0.078-0.12,0.146-0.252,0.231-0.426
			c0.026-0.047,0.051-0.096,0.07-0.145c0.081-0.195,0.146-0.398,0.194-0.635l34.497-163.98
			C378.209,206.567,377.672,205.174,376.554,204.36z M34.5,189.056v148.502L7.392,208.699L34.5,189.056z M370.607,208.699
			L343.5,337.559V189.056L370.607,208.699z M336.5,149.698v218h-52v-218H336.5z M122.319,203.696v-23h26.415v23H122.319z
			 M229.267,203.696v-23h26.415v23H229.267z M129.253,218.039v-7.343h13v7.343H129.253z M235.747,218.039v-7.343h13v7.343H235.747z
			 M122.252,173.698h-3.435c-1.93,0-3.5,1.57-3.5,3.5v30c0,1.93,1.57,3.5,3.5,3.5h3.435v10.842c0,1.93,1.57,3.5,3.5,3.5h20
			c1.93,0,3.5-1.57,3.5-3.5v-10.842h2.98c1.93,0,3.5-1.57,3.5-3.5v-30c0-1.93-1.57-3.5-3.5-3.5h-2.98v-24h79.495v24h-2.98
			c-1.93,0-3.5,1.57-3.5,3.5v30c0,1.93,1.57,3.5,3.5,3.5h2.98v10.842c0,1.93,1.57,3.5,3.5,3.5h20c1.93,0,3.5-1.57,3.5-3.5v-10.842
			h3.435c1.931,0,3.5-1.57,3.5-3.5v-30c0-1.93-1.569-3.5-3.5-3.5h-3.435v-24H277.5v218h-177v-218h21.752V173.698z M189,10.3
			c32.944,0,59.747,26.803,59.747,59.748v103.649h-13V70.048c0-25.777-20.971-46.748-46.747-46.748
			c-25.777,0-46.748,20.971-46.748,46.748v103.649h-13V70.048C129.253,37.103,156.056,10.3,189,10.3z M189,30.3
			c21.917,0,39.747,17.831,39.747,39.748v72.649h-79.495V70.048C149.252,48.131,167.083,30.3,189,30.3z M93.5,149.698v218h-52v-218
			H93.5z M342.769,372.348L342.769,372.348L342.769,372.348L342.769,372.348z"/>
		<path d="M170,185.698h38c1.93,0,3.5-1.57,3.5-3.5v-17c0-1.93-1.57-3.5-3.5-3.5h-38c-1.93,0-3.5,1.57-3.5,3.5v17
			C166.5,184.127,168.071,185.698,170,185.698z M173.5,178.698v-10h31v10H173.5z"/>
	</g>
</g>
<g>
</g>
<g>
</g>
<g>
</g>
<g>
</g>
<g>
</g>
<g>
</g>
<g>
</g>
<g>
</g>
<g>
</g>
<g>
</g>
<g>
</g>
<g>
</g>
<g>
</g>
<g>
</g>
<g>
</g>
</svg>
